<svg width="572" height="298" viewBox="0 0 572 298" fill="none" xmlns="http://www.w3.org/2000/svg">
<g clip-path="url(#clip0_96_156)">
<mask id="mask0_96_156" style="mask-type:luminance" maskUnits="userSpaceOnUse" x="0" y="1" width="572" height="290">
<path d="M571.164 1H0.00585938V290.72H571.164V1Z" fill="white"/>
</mask>
<g mask="url(#mask0_96_156)">
<path d="M5.45888 0.870193C8.4684 0.870193 10.9119 3.31369 10.9119 6.32322C10.9119 9.33274 8.4684 11.7762 5.45888 11.7762C2.44936 11.7762 0.00585938 9.33274 0.00585938 6.32322C0.00585938 3.31369 2.44936 0.870193 5.45888 0.870193Z" fill="#2B2533"/>
<path d="M142.537 279.814C145.546 279.814 147.99 282.258 147.99 285.267C147.99 288.277 145.546 290.72 142.537 290.72C139.527 290.72 137.084 288.277 137.084 285.267C137.084 282.258 139.527 279.814 142.537 279.814Z" fill="#2B2533"/>
<g opacity="0.2">
<path d="M5.26257 9.8266L5.3934 55.7768C5.3934 55.7768 4.0943 61.4881 13.3107 62.916C22.5271 64.3438 562.337 121.068 562.337 121.068C562.337 121.068 568.178 121.846 569.606 117.693C571.034 113.539 568.778 111.189 565.493 109.176C552.731 103.025 426.742 49.4684 424.545 48.4435C417.73 45.2638 415.978 44.8734 411.824 47.9886C406.305 52.1278 146.041 281.374 146.041 281.374" stroke="#2B2533" stroke-width="1.03847"/>
</g>
<path d="M5.26257 9.8266L5.3934 55.7768C5.3934 55.7768 4.0943 61.4881 13.3107 62.916C22.5271 64.3438 562.337 121.068 562.337 121.068C562.337 121.068 568.178 121.846 569.606 117.693C571.034 113.539 568.778 111.189 565.493 109.176C552.731 103.025 426.742 49.4684 424.545 48.4435C417.73 45.2638 415.978 44.8734 411.824 47.9886C406.305 52.1278 146.041 281.374 146.041 281.374" stroke="#2B2533" stroke-width="1.03847"/>
</g>
</g>
<defs>
<clipPath id="clip0_96_156">
<rect width="571.17" height="289.72" fill="white" transform="translate(0 1)"/>
</clipPath>
</defs>
</svg>
