<svg width="154" height="20" viewBox="0 0 154 20" fill="none" xmlns="http://www.w3.org/2000/svg">
<path d="M9.47305 4.09156C9.67522 3.60515 10.0218 3.2618 10.5417 3.2618C11.1193 3.2618 11.5525 3.69099 11.5525 4.37768V15.7654C11.5525 18.3119 12.9966 20 15.8558 20C18.4551 20 19.7259 18.6266 20.4768 16.4235L25.2133 4.09156C25.3866 3.60515 25.791 3.2618 26.2819 3.2618C26.8596 3.2618 27.2639 3.69099 27.2639 4.37768V19.6567H30.7008V4.20601C30.7008 1.68813 29.2567 0 26.3686 0C23.7693 0 22.5274 1.37339 21.7765 3.57654L17.0399 15.9084C16.8667 16.3948 16.4623 16.7096 15.9425 16.7096C15.3648 16.7096 14.9605 16.2804 14.9605 15.6223V4.20601C14.9605 1.68813 13.5164 0 10.6283 0C8.02899 0 6.78709 1.37339 6.03618 3.57654L0 19.6567H3.63904L9.47305 4.09156Z" fill="#151219"/>
<path d="M46.9634 0.343349C41.3027 0.343349 38.1546 3.54793 38.1546 10.0429C38.1546 16.5093 41.2738 19.6567 46.9634 19.6567H49.6205C55.3101 19.6567 58.4292 16.5093 58.4292 10.0429C58.4292 3.54793 55.2812 0.343349 49.6205 0.343349H46.9634ZM49.6205 3.7196C53.375 3.7196 54.9924 5.60801 54.9924 10.0143C54.9924 14.4492 53.375 16.2804 49.6205 16.2804H46.9634C43.1799 16.2804 41.5626 14.4492 41.5626 10.0429C41.5626 5.60801 43.2088 3.7196 46.9634 3.7196H49.6205Z" fill="#151219"/>
<path d="M67.1084 0.343349C66.0109 0.343349 65.4911 0.858369 65.4911 1.91702V18.083C65.4911 19.1416 66.0109 19.6567 67.1084 19.6567H73.9821C79.7006 19.6567 82.762 16.5093 82.762 10.0143C82.762 3.4907 79.6717 0.343349 73.9821 0.343349H67.1084ZM68.899 4.06295C68.899 3.80543 69.0146 3.7196 69.2745 3.7196H73.9821C77.7656 3.7196 79.3541 5.5794 79.3541 9.98569C79.3541 14.4206 77.7656 16.2804 73.9821 16.2804H69.2745C69.0146 16.2804 68.899 16.1946 68.899 15.9371V4.06295Z" fill="#151219"/>
<path d="M90.1067 0.343349V13.505C90.1067 17.568 92.2439 19.6567 96.4028 19.6567H100.504C104.663 19.6567 106.829 17.568 106.829 13.505V0.343349H103.479V13.2475C103.479 15.1645 102.468 16.2804 100.273 16.2804H96.8071C94.5544 16.2804 93.5724 15.1645 93.5724 13.2475V0.343349H90.1067Z" fill="#151219"/>
<path d="M114.668 0.343349V12.99C114.668 16.8526 116.69 19.6567 121.859 19.6567H129.628V16.2804H122.062C119 16.2804 118.076 14.8212 118.076 12.9614V0.343349H114.668Z" fill="#151219"/>
<path d="M142.534 0.343349C136.873 0.343349 133.725 3.54793 133.725 10.0429C133.725 16.5093 136.845 19.6567 142.534 19.6567H145.191C150.881 19.6567 154 16.5093 154 10.0429C154 3.54793 150.852 0.343349 145.191 0.343349H142.534ZM145.191 3.7196C148.946 3.7196 150.563 5.60801 150.563 10.0143C150.563 14.4492 148.946 16.2804 145.191 16.2804H142.534C138.751 16.2804 137.133 14.4492 137.133 10.0429C137.133 5.60801 138.78 3.7196 142.534 3.7196H145.191Z" fill="#151219"/>
</svg>
